<svg id="svg" version="1.1" xmlns="http://www.w3.org/2000/svg" xmlns:xlink="http://www.w3.org/1999/xlink" width="400" height="400" viewBox="0, 0, 400,400"><g id="svgg"><path id="path0" d="M113.151 71.307 C 101.384 73.313,94.964 78.983,91.718 90.234 C 90.828 93.319,91.036 306.656,91.933 310.486 C 94.314 320.658,102.151 327.748,113.363 329.875 C 117.947 330.745,229.849 330.763,236.719 329.895 C 269.117 325.803,294.185 305.418,304.945 274.414 C 306.645 269.514,307.307 266.656,308.967 257.031 C 309.495 253.970,309.141 239.161,308.442 235.091 C 305.386 217.297,297.204 201.417,285.198 189.981 L 281.445 186.406 282.872 183.731 C 286.080 177.714,289.251 168.752,290.015 163.539 C 290.168 162.499,290.379 161.268,290.485 160.805 C 290.973 158.666,291.090 145.516,290.657 141.386 C 286.786 104.413,261.769 78.137,224.414 71.807 C 218.028 70.726,119.168 70.280,113.151 71.307 M223.242 101.180 C 230.234 102.541,237.858 105.712,243.387 109.559 L 245.813 111.248 247.878 109.565 C 249.014 108.640,250.264 107.795,250.656 107.687 C 255.412 106.374,259.492 107.966,261.503 111.920 C 263.708 116.252,262.103 120.574,257.077 123.843 L 256.153 124.444 257.187 126.484 C 262.584 137.135,264.183 155.026,260.683 165.625 C 258.123 173.379,253.900 180.192,246.962 187.762 L 243.321 191.735 246.758 193.586 C 271.777 207.063,285.087 231.938,280.707 257.031 C 276.729 279.816,261.178 295.371,237.109 300.640 C 233.617 301.405,129.525 301.815,126.886 301.074 C 125.398 300.657,123.527 298.972,122.657 297.266 C 121.820 295.627,121.385 208.551,121.855 137.109 L 122.070 104.492 122.980 103.217 C 124.980 100.413,122.064 100.611,165.039 100.360 C 214.592 100.070,217.765 100.115,223.242 101.180 M153.906 120.257 C 141.899 120.697,142.969 117.234,142.969 155.664 C 142.969 189.654,142.855 188.092,145.458 189.949 L 146.680 190.820 177.734 190.820 L 208.789 190.820 212.109 189.920 C 228.923 185.362,240.948 166.303,237.420 149.805 C 237.282 149.160,237.042 148.018,236.886 147.266 C 234.392 135.189,222.096 123.838,208.537 121.093 C 204.144 120.204,169.717 119.677,153.906 120.257 M203.296 145.872 C 212.397 148.611,212.878 162.698,203.984 166.026 C 202.012 166.764,201.006 166.814,188.745 166.786 L 175.618 166.757 173.736 165.733 C 170.577 164.013,170.140 162.899,169.984 156.171 C 169.830 149.520,170.327 148.004,173.234 146.262 L 174.805 145.320 188.122 145.316 C 198.558 145.313,201.840 145.433,203.296 145.872 M212.500 209.845 C 211.592 210.127,200.384 210.349,179.102 210.506 C 143.480 210.769,145.435 210.609,143.734 213.398 C 142.995 214.611,142.972 215.595,142.970 246.134 L 142.969 277.619 143.848 278.910 C 146.008 282.085,143.030 281.822,178.239 281.948 C 219.535 282.097,220.669 281.945,229.718 275.074 C 250.023 259.654,248.132 227.132,226.182 214.264 C 219.602 210.406,215.237 208.997,212.500 209.845 M210.437 236.338 C 218.419 240.896,217.421 253.547,208.828 256.721 C 206.690 257.511,177.789 257.782,175.027 257.038 C 170.976 255.948,169.942 253.733,169.930 246.119 C 169.920 238.963,170.668 237.105,174.219 235.473 C 174.541 235.325,182.369 235.200,191.614 235.195 L 208.423 235.187 210.437 236.338 " stroke="none" fill="#04042a" fill-rule="evenodd"></path><path id="path1" d="M0.000 200.000 L 0.000 400.000 200.000 400.000 L 400.000 400.000 400.000 200.000 L 400.000 0.000 200.000 0.000 L 0.000 0.000 0.000 200.000 M221.484 71.218 C 222.021 71.378,223.779 71.669,225.391 71.864 C 254.931 75.436,279.240 96.973,288.454 127.734 C 292.037 139.698,292.291 157.282,289.042 168.555 C 288.609 170.059,288.208 171.465,288.151 171.680 C 287.463 174.280,286.179 177.456,284.196 181.459 L 281.796 186.302 285.652 190.124 C 296.958 201.330,305.873 217.777,308.048 231.445 C 313.375 264.913,302.771 293.217,277.148 313.918 C 274.078 316.399,264.317 322.656,263.517 322.656 C 263.404 322.656,262.030 323.261,260.464 324.000 C 257.495 325.401,250.266 327.918,248.242 328.255 C 247.598 328.363,245.840 328.709,244.336 329.024 C 236.547 330.658,236.297 330.664,174.414 330.664 C 110.409 330.664,113.533 330.760,107.658 328.609 C 99.233 325.524,92.897 317.762,91.565 308.895 C 90.571 302.274,90.769 93.255,91.773 89.641 C 92.649 86.488,94.194 82.854,95.201 81.582 C 100.193 75.269,105.830 71.976,113.129 71.111 C 116.474 70.715,220.140 70.817,221.484 71.218 M208.984 100.710 C 208.984 100.950,209.250 101.045,209.575 100.921 C 209.900 100.796,210.384 100.860,210.650 101.064 C 210.915 101.267,212.188 101.656,213.477 101.927 C 234.523 106.363,253.883 127.295,256.314 148.242 C 256.777 152.226,256.528 164.434,255.948 166.211 C 255.738 166.855,255.352 168.350,255.091 169.531 C 254.432 172.508,252.704 176.974,250.393 181.674 C 248.111 186.315,248.097 186.363,249.533 184.682 C 259.472 173.046,264.664 156.068,261.991 143.945 C 261.897 143.516,261.692 142.293,261.538 141.228 C 260.969 137.317,258.631 130.060,256.795 126.510 C 255.649 124.292,255.636 123.952,256.684 123.619 C 262.082 121.906,263.826 114.341,259.819 110.024 C 256.602 106.559,250.489 106.868,246.934 110.674 L 246.016 111.656 243.223 109.784 C 237.644 106.045,229.925 102.814,223.181 101.395 C 219.484 100.618,208.984 100.111,208.984 100.710 M173.498 146.365 C 170.731 147.728,170.243 149.266,170.384 156.186 C 170.593 166.507,170.371 166.386,189.164 166.398 C 202.071 166.406,202.828 166.366,204.455 165.601 C 212.362 161.885,211.978 148.970,203.882 146.355 C 200.880 145.386,175.469 145.394,173.498 146.365 M242.306 192.663 C 241.919 193.091,241.669 193.555,241.752 193.693 C 241.956 194.036,245.611 196.484,245.918 196.484 C 246.053 196.484,246.632 196.907,247.203 197.424 C 247.775 197.940,249.527 199.451,251.097 200.782 C 260.054 208.371,268.691 224.042,269.781 234.683 L 270.048 237.288 269.106 236.614 C 263.953 232.925,258.926 233.183,254.819 237.349 C 252.781 239.416,252.886 239.405,252.547 237.601 C 252.396 236.797,252.161 235.962,252.025 235.745 C 251.889 235.529,251.725 234.967,251.660 234.497 C 251.262 231.603,247.531 224.012,244.456 219.837 C 238.803 212.163,226.946 204.326,224.395 206.577 C 224.190 206.758,222.617 207.398,220.898 208.000 C 216.673 209.480,216.671 209.406,220.989 211.287 C 239.476 219.341,248.640 239.652,242.156 258.203 C 241.518 260.029,240.956 261.692,240.908 261.899 C 240.860 262.105,240.682 262.457,240.512 262.680 C 240.343 262.903,239.298 264.492,238.191 266.211 C 235.384 270.568,230.127 275.696,226.333 277.779 C 223.918 279.104,223.461 279.491,224.057 279.704 C 224.468 279.851,224.907 279.814,225.031 279.621 C 225.156 279.428,225.551 279.383,225.910 279.521 C 226.269 279.658,226.563 279.587,226.563 279.363 C 226.563 279.138,226.870 278.976,227.246 279.001 C 228.324 279.075,235.152 275.873,235.155 275.293 C 235.156 275.132,235.398 275.000,235.694 275.000 C 236.156 275.000,241.682 269.711,244.476 266.595 C 247.180 263.578,251.410 254.756,252.171 250.547 C 252.583 248.267,252.652 248.262,254.538 250.359 C 258.220 254.454,264.240 254.955,268.183 251.494 C 269.976 249.919,270.079 250.115,269.381 253.767 C 266.943 266.523,256.559 282.877,246.777 289.366 C 245.972 289.901,245.313 290.520,245.313 290.742 C 245.313 290.964,245.202 291.036,245.068 290.901 C 244.933 290.766,244.098 291.147,243.212 291.747 C 240.449 293.620,234.307 296.939,233.251 297.130 C 232.697 297.231,232.132 297.493,231.996 297.713 C 231.860 297.934,231.636 298.099,231.499 298.080 C 231.362 298.062,231.206 298.060,231.152 298.077 C 231.099 298.093,230.791 298.161,230.469 298.227 C 230.146 298.293,229.092 298.575,228.125 298.853 C 227.158 299.132,226.279 299.375,226.172 299.393 C 226.064 299.411,225.771 299.557,225.520 299.717 C 225.268 299.877,224.053 300.101,222.820 300.215 C 218.766 300.590,219.639 300.973,225.000 301.173 C 276.046 303.075,300.396 242.567,263.327 205.933 C 256.402 199.089,243.730 191.089,242.306 192.663 M174.486 235.708 C 170.775 237.066,169.989 239.205,170.286 247.140 C 170.527 253.573,170.728 254.186,173.197 256.031 C 174.504 257.007,205.306 257.524,208.389 256.621 C 217.362 253.992,218.302 240.037,209.754 236.360 C 207.208 235.265,177.213 234.711,174.486 235.708 " stroke="none" fill="#833bc4" fill-rule="evenodd"></path><path id="path2" d="M126.837 100.768 C 124.840 101.154,122.841 103.148,122.301 105.293 C 121.681 107.755,121.699 293.889,122.320 295.742 C 122.923 297.544,124.444 299.519,125.924 300.424 C 127.199 301.204,216.927 301.450,219.531 300.682 C 220.068 300.523,221.123 300.289,221.875 300.161 C 244.501 296.317,266.976 274.043,269.301 253.158 C 269.427 252.025,269.646 250.895,269.787 250.647 C 269.927 250.398,269.532 250.659,268.908 251.225 C 264.518 255.209,257.178 254.595,253.884 249.969 C 252.870 248.544,252.648 248.730,251.980 251.563 C 248.429 266.632,232.800 280.895,219.531 281.176 C 219.209 281.183,217.891 281.377,216.602 281.608 C 215.053 281.884,202.842 282.027,180.624 282.029 L 146.991 282.031 145.663 281.149 C 144.933 280.664,143.940 279.484,143.457 278.527 L 142.578 276.788 142.578 246.094 L 142.578 215.400 143.457 213.666 C 145.129 210.367,142.741 210.592,177.747 210.433 C 198.928 210.336,209.285 210.153,210.352 209.857 C 211.211 209.618,212.793 209.340,213.867 209.241 C 214.941 209.141,217.930 208.406,220.508 207.608 C 223.086 206.810,225.477 206.076,225.821 205.978 C 226.626 205.747,230.966 207.716,233.870 209.631 C 242.780 215.505,249.683 225.512,252.206 236.216 C 252.963 239.426,253.032 239.490,254.066 237.947 C 256.963 233.623,263.633 232.661,268.233 235.903 L 269.995 237.145 269.769 235.076 C 268.284 221.474,257.688 204.810,245.228 196.482 C 240.687 193.446,240.778 194.266,244.512 190.079 C 255.599 177.646,259.820 155.035,254.049 138.981 C 246.647 118.387,229.165 104.227,207.131 100.980 C 202.817 100.345,130.018 100.152,126.837 100.768 M207.031 120.389 C 237.973 126.227,248.550 160.970,225.916 182.422 C 216.968 190.902,214.193 191.406,176.423 191.406 C 145.632 191.406,146.594 191.484,144.131 188.811 L 142.578 187.127 142.580 156.552 C 142.583 121.254,142.533 121.657,147.020 120.343 C 148.761 119.833,204.311 119.876,207.031 120.389 " stroke="none" fill="#fbfbfb" fill-rule="evenodd"></path><path id="path3" d="M237.109 114.185 C 237.109 114.252,237.681 114.823,238.379 115.454 L 239.648 116.602 238.501 115.332 C 237.432 114.149,237.109 113.883,237.109 114.185 M241.602 118.750 C 242.660 119.824,243.613 120.703,243.721 120.703 C 243.828 120.703,243.050 119.824,241.992 118.750 C 240.934 117.676,239.981 116.797,239.873 116.797 C 239.766 116.797,240.543 117.676,241.602 118.750 M224.219 127.857 C 224.219 127.924,224.790 128.495,225.488 129.126 L 226.758 130.273 225.611 129.004 C 224.541 127.821,224.219 127.555,224.219 127.857 M142.743 151.563 C 142.743 155.967,142.800 157.769,142.869 155.566 C 142.939 153.364,142.939 149.761,142.869 147.559 C 142.800 145.356,142.743 147.158,142.743 151.563 M237.981 153.516 C 237.981 154.268,238.062 154.575,238.160 154.199 C 238.258 153.823,238.258 153.208,238.160 152.832 C 238.062 152.456,237.981 152.764,237.981 153.516 M248.299 185.254 C 247.915 185.952,247.850 186.219,248.155 185.846 C 248.460 185.473,248.788 185.246,248.883 185.341 C 248.977 185.436,249.081 185.169,249.113 184.749 C 249.190 183.725,249.113 183.772,248.299 185.254 M244.120 190.527 L 242.773 191.992 244.238 190.646 C 245.602 189.393,245.883 189.063,245.584 189.063 C 245.519 189.063,244.860 189.722,244.120 190.527 M173.340 191.308 C 177.690 191.371,184.810 191.371,189.160 191.308 C 193.511 191.245,189.951 191.194,181.250 191.194 C 172.549 191.194,168.989 191.245,173.340 191.308 M253.320 203.125 C 254.596 204.414,255.727 205.469,255.835 205.469 C 255.942 205.469,254.987 204.414,253.711 203.125 C 252.435 201.836,251.304 200.781,251.196 200.781 C 251.089 200.781,252.045 201.836,253.320 203.125 M240.430 215.234 C 241.269 216.094,242.043 216.797,242.151 216.797 C 242.258 216.797,241.659 216.094,240.820 215.234 C 239.981 214.375,239.207 213.672,239.099 213.672 C 238.992 213.672,239.591 214.375,240.430 215.234 M142.754 239.844 C 142.754 247.256,142.806 250.288,142.870 246.582 C 142.935 242.876,142.935 236.812,142.870 233.105 C 142.806 229.399,142.754 232.432,142.754 239.844 M268.318 251.477 L 267.383 252.539 268.422 251.625 C 269.387 250.776,269.474 250.762,269.646 251.430 C 269.803 252.040,269.838 252.048,269.877 251.488 C 269.953 250.369,269.299 250.364,268.318 251.477 M213.379 281.910 C 213.755 282.008,214.370 282.008,214.746 281.910 C 215.122 281.812,214.814 281.731,214.063 281.731 C 213.311 281.731,213.003 281.812,213.379 281.910 M252.344 284.180 C 251.395 285.146,250.706 285.938,250.814 285.938 C 250.921 285.938,251.786 285.146,252.734 284.180 C 253.683 283.213,254.372 282.422,254.264 282.422 C 254.157 282.422,253.293 283.213,252.344 284.180 M150.684 301.465 C 162.983 301.522,183.110 301.522,195.410 301.465 C 207.710 301.408,197.646 301.361,173.047 301.361 C 148.447 301.361,138.384 301.408,150.684 301.465 " stroke="none" fill="#9c89b4" fill-rule="evenodd"></path><path id="path4" d="M235.352 74.219 C 235.781 74.403,236.396 74.554,236.719 74.554 C 237.088 74.554,237.016 74.430,236.523 74.219 C 236.094 74.034,235.479 73.883,235.156 73.883 C 234.787 73.883,234.859 74.007,235.352 74.219 M254.297 82.178 C 254.297 82.270,254.923 82.714,255.688 83.165 C 256.452 83.616,256.969 83.808,256.835 83.592 C 256.573 83.168,254.297 81.900,254.297 82.178 M257.422 84.100 C 257.422 84.178,258.257 84.814,259.277 85.512 C 260.682 86.473,260.848 86.531,259.961 85.754 C 258.781 84.720,257.422 83.834,257.422 84.100 M265.430 90.625 C 266.488 91.699,267.441 92.578,267.549 92.578 C 267.656 92.578,266.878 91.699,265.820 90.625 C 264.762 89.551,263.809 88.672,263.701 88.672 C 263.594 88.672,264.372 89.551,265.430 90.625 M270.296 95.410 C 271.254 96.431,272.089 97.266,272.152 97.266 C 272.445 97.266,272.135 96.915,270.410 95.296 L 268.555 93.555 270.296 95.410 M204.238 100.417 C 205.085 100.756,212.481 100.540,212.856 100.165 C 212.947 100.074,210.838 100.011,208.171 100.025 C 204.728 100.042,203.587 100.156,204.238 100.417 M216.895 100.670 C 217.485 100.760,218.452 100.760,219.043 100.670 C 219.634 100.581,219.150 100.508,217.969 100.508 C 216.787 100.508,216.304 100.581,216.895 100.670 M228.308 102.742 C 230.235 103.360,231.878 103.800,231.958 103.719 C 232.141 103.536,225.911 101.552,225.273 101.591 C 225.015 101.606,226.381 102.125,228.308 102.742 M234.408 104.837 C 234.805 105.202,240.234 107.802,240.234 107.627 C 240.234 107.409,234.939 104.688,234.515 104.688 C 234.366 104.688,234.318 104.755,234.408 104.837 M251.889 107.400 C 251.102 107.553,250.003 107.976,249.448 108.340 C 247.935 109.332,248.231 109.471,249.837 108.523 C 250.903 107.894,251.902 107.695,254.036 107.687 C 255.848 107.680,256.491 107.576,255.859 107.392 C 254.647 107.041,253.723 107.043,251.889 107.400 M241.211 108.406 C 241.641 108.755,242.344 109.214,242.773 109.425 L 243.555 109.809 242.773 109.173 C 242.344 108.823,241.641 108.364,241.211 108.153 L 240.430 107.769 241.211 108.406 M258.594 108.698 C 258.594 108.775,259.132 109.354,259.791 109.985 C 260.449 110.616,260.881 110.868,260.751 110.546 C 260.538 110.021,258.594 108.355,258.594 108.698 M246.886 110.340 C 246.388 110.870,245.803 111.194,245.586 111.060 C 245.353 110.916,245.314 111.014,245.490 111.300 C 245.741 111.705,248.047 110.079,248.047 109.497 C 248.047 109.209,247.737 109.434,246.886 110.340 M262.226 115.625 C 262.226 116.807,262.300 117.290,262.389 116.699 C 262.479 116.108,262.479 115.142,262.389 114.551 C 262.300 113.960,262.226 114.443,262.226 115.625 M152.069 120.213 C 153.743 120.286,156.380 120.286,157.928 120.212 C 159.476 120.138,158.105 120.078,154.883 120.078 C 151.660 120.079,150.394 120.139,152.069 120.213 M195.428 120.213 C 197.103 120.286,199.740 120.286,201.287 120.212 C 202.835 120.138,201.465 120.078,198.242 120.078 C 195.020 120.079,193.753 120.139,195.428 120.213 M256.275 123.804 C 255.697 124.170,256.644 127.058,257.518 127.599 C 257.712 127.718,257.486 127.063,257.016 126.142 C 256.198 124.539,256.192 124.446,256.867 123.953 C 257.655 123.376,257.151 123.250,256.275 123.804 M142.746 134.766 C 142.746 139.814,142.802 141.880,142.870 139.355 C 142.938 136.831,142.938 132.700,142.870 130.176 C 142.802 127.651,142.746 129.717,142.746 134.766 M257.857 128.516 C 257.864 128.838,258.209 129.805,258.622 130.664 C 259.035 131.523,259.264 131.798,259.130 131.275 C 258.763 129.845,257.841 127.846,257.857 128.516 M288.856 129.883 C 289.381 133.358,289.966 136.170,290.223 136.448 C 290.548 136.801,289.669 131.851,289.068 129.944 L 288.679 128.711 288.856 129.883 M290.716 141.797 C 290.716 142.549,290.796 142.856,290.894 142.480 C 290.993 142.104,290.993 141.489,290.894 141.113 C 290.796 140.737,290.716 141.045,290.716 141.797 M262.090 145.420 C 262.280 147.030,262.289 147.038,262.421 145.751 C 262.496 145.026,262.408 144.283,262.226 144.101 C 262.044 143.919,261.983 144.513,262.090 145.420 M174.353 145.611 C 173.941 145.872,189.387 145.857,198.438 145.587 C 200.479 145.526,195.996 145.442,188.477 145.400 C 180.957 145.359,174.601 145.454,174.353 145.611 M291.100 151.020 C 291.054 153.622,290.933 156.610,290.831 157.660 L 290.646 159.570 291.038 157.698 C 291.254 156.668,291.375 153.680,291.307 151.057 L 291.185 146.289 291.100 151.020 M170.077 155.469 C 170.077 158.584,170.138 159.858,170.212 158.301 C 170.286 156.743,170.286 154.194,170.212 152.637 C 170.138 151.079,170.077 152.354,170.077 155.469 M209.811 158.659 C 209.786 159.018,209.664 159.633,209.541 160.027 C 209.328 160.705,209.339 160.706,209.762 160.046 C 210.008 159.664,210.129 159.048,210.033 158.679 C 209.874 158.074,209.852 158.072,209.811 158.659 M142.754 172.852 C 142.754 180.371,142.807 183.392,142.871 179.565 C 142.935 175.737,142.935 169.585,142.870 165.893 C 142.806 162.201,142.754 165.332,142.754 172.852 M261.373 162.175 C 261.349 162.533,261.227 163.149,261.103 163.542 C 260.890 164.220,260.902 164.222,261.325 163.562 C 261.570 163.179,261.692 162.564,261.595 162.195 C 261.436 161.590,261.414 161.588,261.373 162.175 M121.665 181.250 C 121.665 191.885,121.716 196.235,121.777 190.918 C 121.838 185.601,121.838 176.899,121.777 171.582 C 121.716 166.265,121.665 170.615,121.665 181.250 M206.451 164.184 C 205.594 165.046,205.243 165.562,205.669 165.331 C 206.601 164.827,208.895 162.475,208.374 162.558 C 208.173 162.591,207.307 163.322,206.451 164.184 M182.495 166.698 C 186.079 166.763,192.056 166.763,195.776 166.699 C 199.496 166.634,196.563 166.582,189.258 166.582 C 181.953 166.581,178.910 166.634,182.495 166.698 M256.912 173.638 C 256.555 174.387,256.343 175.000,256.442 175.000 C 256.709 175.000,257.895 172.608,257.716 172.430 C 257.631 172.345,257.270 172.888,256.912 173.638 M255.273 176.563 C 254.940 177.207,254.755 177.734,254.863 177.734 C 254.970 177.734,255.331 177.207,255.664 176.563 C 255.997 175.918,256.182 175.391,256.075 175.391 C 255.967 175.391,255.607 175.918,255.273 176.563 M283.594 188.477 C 284.761 189.658,285.803 190.625,285.911 190.625 C 286.018 190.625,285.151 189.658,283.984 188.477 C 282.817 187.295,281.775 186.328,281.667 186.328 C 281.560 186.328,282.427 187.295,283.594 188.477 M152.810 191.307 C 155.108 191.376,158.975 191.376,161.404 191.307 C 163.833 191.239,161.953 191.182,157.227 191.182 C 152.500 191.182,150.513 191.238,152.810 191.307 M198.940 191.305 C 200.183 191.382,202.117 191.382,203.237 191.303 C 204.357 191.224,203.340 191.161,200.977 191.162 C 198.613 191.163,197.697 191.227,198.940 191.305 M243.359 191.976 C 243.359 192.084,244.062 192.530,244.922 192.969 C 245.781 193.407,246.484 193.678,246.484 193.571 C 246.484 193.463,245.781 193.017,244.922 192.578 C 244.062 192.140,243.359 191.869,243.359 191.976 M248.438 194.663 C 248.438 194.763,249.024 195.191,249.741 195.614 C 250.458 196.037,251.556 196.690,252.182 197.066 L 253.320 197.749 252.344 196.941 C 251.228 196.017,248.438 194.390,248.438 194.663 M256.250 199.732 C 256.250 199.828,256.895 200.399,257.684 201.001 C 258.473 201.603,258.995 201.895,258.844 201.652 C 258.535 201.151,256.250 199.460,256.250 199.732 M260.547 203.320 C 261.276 204.072,261.960 204.688,262.067 204.688 C 262.175 204.688,261.666 204.072,260.938 203.320 C 260.209 202.568,259.524 201.953,259.417 201.953 C 259.310 201.953,259.818 202.568,260.547 203.320 M299.887 209.557 C 300.680 211.160,301.393 212.409,301.471 212.331 C 301.645 212.157,298.892 206.641,298.631 206.641 C 298.528 206.641,299.093 207.953,299.887 209.557 M217.871 208.479 C 215.818 209.018,214.835 209.766,216.179 209.766 C 216.484 209.766,217.055 209.870,217.449 209.998 C 218.028 210.186,218.055 210.153,217.591 209.825 C 217.124 209.495,217.232 209.343,218.177 209.001 C 221.483 207.805,221.344 207.568,217.871 208.479 M266.948 209.881 C 267.776 210.892,268.535 211.719,268.635 211.719 C 268.901 211.719,266.427 208.653,265.896 208.324 C 265.646 208.170,266.120 208.871,266.948 209.881 M224.219 213.121 C 225.186 213.673,226.548 214.476,227.246 214.906 C 227.944 215.337,228.516 215.594,228.516 215.479 C 228.516 215.197,223.295 212.108,222.829 212.114 C 222.626 212.117,223.252 212.570,224.219 213.121 M269.531 213.281 C 269.990 213.926,270.454 214.453,270.561 214.453 C 270.668 214.453,270.381 213.926,269.922 213.281 C 269.463 212.637,269.000 212.109,268.892 212.109 C 268.785 212.109,269.072 212.637,269.531 213.281 M142.733 221.094 C 142.733 224.209,142.794 225.483,142.868 223.926 C 142.942 222.368,142.942 219.819,142.868 218.262 C 142.794 216.704,142.733 217.979,142.733 221.094 M232.422 218.945 C 233.589 220.127,234.632 221.094,234.739 221.094 C 234.846 221.094,233.979 220.127,232.813 218.945 C 231.646 217.764,230.603 216.797,230.495 216.797 C 230.388 216.797,231.255 217.764,232.422 218.945 M273.633 219.531 C 273.966 220.176,274.327 220.703,274.434 220.703 C 274.542 220.703,274.357 220.176,274.023 219.531 C 273.690 218.887,273.330 218.359,273.222 218.359 C 273.115 218.359,273.300 218.887,273.633 219.531 M275.272 222.456 C 275.629 223.205,275.991 223.749,276.075 223.664 C 276.254 223.486,275.068 221.094,274.801 221.094 C 274.703 221.094,274.914 221.707,275.272 222.456 M91.198 245.508 C 91.198 257.324,91.248 262.215,91.308 256.375 C 91.369 250.536,91.369 240.868,91.308 234.891 C 91.248 228.914,91.198 233.691,91.198 245.508 M278.184 229.297 C 278.184 229.619,278.421 230.498,278.711 231.250 C 279.001 232.002,279.237 232.354,279.237 232.031 C 279.237 231.709,279.001 230.830,278.711 230.078 C 278.421 229.326,278.184 228.975,278.184 229.297 M279.855 235.156 C 280.810 240.391,281.022 241.373,281.165 241.231 C 281.410 240.986,280.435 235.444,280.028 234.766 C 279.776 234.345,279.727 234.455,279.855 235.156 M199.512 235.446 C 201.069 235.520,203.618 235.520,205.176 235.446 C 206.733 235.372,205.459 235.311,202.344 235.311 C 199.229 235.311,197.954 235.372,199.512 235.446 M208.207 235.441 C 208.209 235.607,208.912 236.037,209.770 236.397 C 211.781 237.242,211.779 236.965,209.766 235.938 C 208.906 235.499,208.205 235.276,208.207 235.441 M309.273 243.750 C 309.386 246.221,309.544 248.315,309.622 248.405 C 309.876 248.693,309.699 243.626,309.378 241.406 C 309.172 239.980,309.137 240.767,309.273 243.750 M243.889 245.117 C 243.887 247.051,243.954 247.891,244.035 246.984 C 244.117 246.078,244.118 244.496,244.038 243.469 C 243.957 242.442,243.890 243.184,243.889 245.117 M170.074 247.070 C 170.074 249.863,170.137 250.955,170.212 249.495 C 170.287 248.036,170.287 245.751,170.211 244.417 C 170.135 243.084,170.073 244.277,170.074 247.070 M281.389 247.070 C 281.387 249.004,281.454 249.844,281.535 248.938 C 281.617 248.031,281.618 246.449,281.538 245.422 C 281.457 244.395,281.390 245.137,281.389 247.070 M215.280 248.894 C 215.255 249.252,215.133 249.867,215.010 250.261 C 214.796 250.939,214.808 250.940,215.231 250.281 C 215.477 249.898,215.598 249.283,215.501 248.914 C 215.342 248.309,215.321 248.307,215.280 248.894 M142.751 264.258 C 142.751 270.488,142.805 272.982,142.870 269.800 C 142.936 266.618,142.936 261.521,142.870 258.472 C 142.804 255.424,142.750 258.027,142.751 264.258 M183.275 257.324 C 187.504 257.387,194.535 257.387,198.900 257.324 C 203.265 257.261,199.805 257.209,191.211 257.209 C 182.617 257.209,179.046 257.261,183.275 257.324 M121.635 271.875 C 121.635 274.561,121.697 275.659,121.774 274.316 C 121.850 272.974,121.850 270.776,121.774 269.434 C 121.697 268.091,121.635 269.189,121.635 271.875 M234.357 270.724 C 231.559 273.954,228.317 276.369,223.445 278.853 C 220.765 280.220,219.794 280.865,220.654 280.709 C 221.379 280.577,222.137 280.469,222.338 280.469 C 222.538 280.469,222.595 280.296,222.465 280.084 C 222.318 279.847,222.723 279.775,223.516 279.896 C 224.414 280.033,224.578 279.994,224.058 279.765 C 223.430 279.490,223.741 279.203,226.011 277.957 C 229.526 276.030,237.987 268.359,236.598 268.359 C 236.492 268.359,235.484 269.423,234.357 270.724 M276.235 270.915 C 275.581 272.352,275.706 272.658,276.413 271.352 C 276.744 270.742,276.941 270.170,276.852 270.081 C 276.762 269.992,276.485 270.367,276.235 270.915 M266.430 284.886 C 263.008 288.554,262.840 288.786,265.385 286.328 C 267.998 283.804,271.044 280.420,270.638 280.492 C 270.567 280.504,268.673 282.482,266.430 284.886 M299.609 286.719 C 299.171 287.578,298.900 288.281,299.008 288.281 C 299.115 288.281,299.562 287.578,300.000 286.719 C 300.438 285.859,300.709 285.156,300.602 285.156 C 300.494 285.156,300.048 285.859,299.609 286.719 M297.024 291.113 C 295.679 293.395,295.592 293.589,296.276 292.773 C 297.070 291.828,297.754 290.625,297.498 290.625 C 297.395 290.625,297.182 290.845,297.024 291.113 M291.167 299.494 C 290.339 300.504,289.865 301.205,290.115 301.051 C 290.646 300.722,293.120 297.656,292.853 297.656 C 292.754 297.656,291.995 298.483,291.167 299.494 M218.060 301.239 C 217.688 301.387,220.195 301.494,223.633 301.477 C 230.550 301.442,230.413 301.263,223.334 301.086 C 220.806 301.022,218.433 301.091,218.060 301.239 M91.144 303.711 C 91.146 305.215,91.216 305.782,91.301 304.972 C 91.385 304.161,91.384 302.931,91.298 302.237 C 91.211 301.544,91.142 302.207,91.144 303.711 M288.315 302.884 L 287.372 304.102 288.489 303.039 C 289.104 302.455,289.528 301.907,289.432 301.821 C 289.336 301.736,288.833 302.214,288.315 302.884 M284.169 307.520 L 281.445 310.352 284.277 307.628 C 286.908 305.098,287.288 304.688,287.001 304.688 C 286.942 304.688,285.667 305.962,284.169 307.520 M274.219 315.679 C 271.165 317.882,270.841 318.378,273.706 316.463 C 275.036 315.575,276.233 314.671,276.366 314.455 C 276.711 313.897,276.609 313.955,274.219 315.679 M269.430 318.896 C 267.554 320.050,267.030 320.594,268.555 319.806 C 269.779 319.173,271.431 317.994,271.094 317.993 C 270.986 317.993,270.238 318.399,269.430 318.896 M265.099 321.334 C 264.057 321.876,263.296 322.411,263.408 322.522 C 263.607 322.722,267.188 320.779,267.188 320.471 C 267.188 320.247,267.192 320.245,265.099 321.334 M249.023 327.622 C 248.594 327.726,248.081 327.963,247.885 328.149 C 247.586 328.433,249.629 328.035,250.977 327.547 C 251.548 327.340,249.939 327.402,249.023 327.622 M245.313 328.516 C 244.527 328.767,244.489 328.831,245.117 328.840 C 245.547 328.846,246.250 328.700,246.680 328.516 C 247.675 328.088,246.648 328.088,245.313 328.516 M109.375 329.279 C 109.697 329.497,110.298 329.678,110.710 329.682 C 111.709 329.690,111.397 329.466,109.961 329.145 C 109.105 328.953,108.947 328.989,109.375 329.279 M241.211 329.297 C 240.166 329.563,240.145 329.595,241.016 329.595 C 241.553 329.595,242.520 329.461,243.164 329.297 C 244.209 329.031,244.230 328.999,243.359 328.999 C 242.822 328.999,241.855 329.133,241.211 329.297 M112.156 329.864 C 112.273 329.981,113.205 330.233,114.226 330.424 C 115.248 330.615,115.937 330.638,115.757 330.475 C 115.386 330.139,111.827 329.536,112.156 329.864 M237.207 329.957 C 237.583 330.055,238.198 330.055,238.574 329.957 C 238.950 329.859,238.643 329.778,237.891 329.778 C 237.139 329.778,236.831 329.859,237.207 329.957 M234.282 330.354 C 234.768 330.448,235.471 330.444,235.844 330.347 C 236.218 330.249,235.820 330.172,234.961 330.177 C 234.102 330.181,233.796 330.261,234.282 330.354 M144.855 330.762 C 160.609 330.818,186.273 330.818,201.886 330.762 C 217.499 330.705,204.609 330.659,173.242 330.659 C 141.875 330.659,129.101 330.705,144.855 330.762 " stroke="none" fill="#502c80" fill-rule="evenodd"></path></g></svg>